<?xml version="1.0" encoding="UTF-8" standalone="no"?>
<!-- Created with Inkscape (http://www.inkscape.org/) -->

<svg
   version="1.1"
   id="svg2"
   width="377.95334"
   height="264.56668"
   viewBox="0 0 377.95334 264.56668"
   sodipodiDocname="logo-icon.svg"
   xmlnsInkscape="http://www.inkscape.org/namespaces/inkscape"
   xmlnsSodipodi="http://sodipodi.sourceforge.net/DTD/sodipodi-0.dtd"
   xmlns="http://www.w3.org/2000/svg"
   xmlnsSvg="http://www.w3.org/2000/svg">
  <defs
     id="defs6">
    <clipPath
       clipPathUnits="userSpaceOnUse"
       id="clipPath16">
      <path
         d="M 0,198.425 H 283.465 V 0 H 0 Z"
         id="path14" />
    </clipPath>
  </defs>
  <sodipodiNamedview
     id="namedview4"
     pagecolor="#ffffff"
     bordercolor="#000000"
     borderopacity="0.25"
     inkscapeShowpageshadow="2"
     inkscapePageopacity="0.0"
     inkscapePagecheckerboard="0"
     inkscapeDeskcolor="#d1d1d1" />
  <g
     id="g8"
     inkscapeGroupmode="layer"
     inkscapeLabel="Crival logotipo vector (2)"
     transform="matrix(1.3333333,0,0,-1.3333333,0,264.56667)">
    <g
       id="g10">
      <g
         id="g12"
         clip-path="url(#clipPath16)">
        <g
           id="g18"
           transform="translate(254.6396,61.6293)">
          <path
             d="m 0,0 v 32.49 h -11.484 v -42.627 h 28.418 l 0,10.137 z m -39.316,6.328 3.808,12.246 h 0.117 l 3.809,-12.246 z m -1.582,26.162 -15.469,-42.627 h 11.953 l 2.139,6.885 h 13.681 l 2.139,-6.885 h 11.924 L -30,32.49 Z m -22.559,0 -8.203,-26.367 h -0.147 l -8.086,26.367 h -12.392 l 15.586,-42.627 h 10.019 l 15.498,42.627 z m -43.857,-42.627 h 11.572 V 32.49 h -11.572 z m -19.644,24.141 c -1.143,-0.84 -2.652,-1.26 -4.527,-1.26 h -3.457 v 9.727 h 3.457 c 1.992,0 3.53,-0.464 4.614,-1.392 1.084,-0.928 1.626,-2.085 1.626,-3.472 0,-1.562 -0.571,-2.763 -1.713,-3.603 m 6.342,-9.317 c 1.153,0.547 2.168,1.221 3.048,2.022 0.878,0.801 1.63,1.729 2.255,2.783 0.625,1.055 1.099,2.241 1.421,3.56 0.322,1.318 0.483,2.749 0.483,4.292 0,2.226 -0.312,4.248 -0.937,6.064 -0.625,1.817 -1.557,3.408 -2.798,4.776 -1.24,1.367 -2.861,2.426 -4.863,3.178 -2.002,0.752 -4.312,1.128 -6.929,1.128 h -17.08 v -42.627 h 11.074 V 2.871 h 2.637 l 8.027,-13.008 h 13.272 L -120.645,4.6 Z m -55.019,13.404 c 0.644,0.869 1.402,1.611 2.27,2.226 0.869,0.616 1.802,1.07 2.798,1.363 0.996,0.293 2.022,0.439 3.076,0.439 0.957,0 1.9,-0.132 2.827,-0.395 0.928,-0.264 1.773,-0.62 2.535,-1.07 0.761,-0.449 1.44,-0.913 2.036,-1.391 0.596,-0.479 1.137,-0.992 1.626,-1.538 l 8.349,7.148 c -2.285,2.754 -4.975,4.814 -8.071,6.182 -3.096,1.367 -6.196,2.05 -9.302,2.05 -2.324,0 -4.516,-0.263 -6.577,-0.791 -2.06,-0.527 -3.896,-1.269 -5.508,-2.226 -1.611,-0.957 -3.061,-2.105 -4.35,-3.442 -1.289,-1.338 -2.354,-2.823 -3.194,-4.454 -0.839,-1.63 -1.484,-3.383 -1.933,-5.258 -0.449,-1.875 -0.674,-3.829 -0.674,-5.86 0,-2.324 0.273,-4.507 0.82,-6.548 0.547,-2.041 1.314,-3.852 2.3,-5.434 0.986,-1.582 2.168,-2.998 3.545,-4.248 1.377,-1.25 2.891,-2.281 4.541,-3.091 1.65,-0.811 3.403,-1.431 5.259,-1.86 1.855,-0.43 3.779,-0.645 5.771,-0.645 3.594,0 6.895,0.752 9.903,2.256 3.007,1.504 5.498,3.467 7.47,5.889 l -8.349,7.177 c -1.055,-1.289 -2.408,-2.334 -4.058,-3.134 -1.65,-0.801 -3.306,-1.202 -4.966,-1.202 -1.562,0 -2.992,0.293 -4.292,0.879 -1.299,0.586 -2.378,1.377 -3.237,2.373 -0.859,0.996 -1.523,2.149 -1.992,3.457 -0.469,1.309 -0.703,2.686 -0.703,4.131 0,1.406 0.185,2.71 0.556,3.911 0.371,1.202 0.879,2.237 1.524,3.106"
             style="fill:#ffffff;fill-opacity:1;fill-rule:nonzero;stroke:none"
             id="path20" />
        </g>
        <g
           id="g22"
           transform="translate(254.6396,61.6293)">
          <path
             d="m 0,0 v 32.49 h -11.484 v -42.627 h 28.418 l 0,10.137 z m -39.316,6.328 3.808,12.246 h 0.117 l 3.809,-12.246 z m -1.582,26.162 -15.469,-42.627 h 11.953 l 2.139,6.885 h 13.681 l 2.139,-6.885 h 11.924 L -30,32.49 Z m -22.559,0 -8.203,-26.367 h -0.147 l -8.086,26.367 h -12.392 l 15.586,-42.627 h 10.019 l 15.498,42.627 z m -43.857,-42.627 h 11.572 V 32.49 h -11.572 z m -19.644,24.141 c -1.143,-0.84 -2.652,-1.26 -4.527,-1.26 h -3.457 v 9.727 h 3.457 c 1.992,0 3.53,-0.464 4.614,-1.392 1.084,-0.928 1.626,-2.085 1.626,-3.472 0,-1.562 -0.571,-2.763 -1.713,-3.603 m 6.342,-9.317 c 1.153,0.547 2.168,1.221 3.048,2.022 0.878,0.801 1.63,1.729 2.255,2.783 0.625,1.055 1.099,2.241 1.421,3.56 0.322,1.318 0.483,2.749 0.483,4.292 0,2.226 -0.312,4.248 -0.937,6.064 -0.625,1.817 -1.557,3.408 -2.798,4.776 -1.24,1.367 -2.861,2.426 -4.863,3.178 -2.002,0.752 -4.312,1.128 -6.929,1.128 h -17.08 v -42.627 h 11.074 V 2.871 h 2.637 l 8.027,-13.008 h 13.272 L -120.645,4.6 Z m -55.019,13.404 c 0.644,0.869 1.402,1.611 2.27,2.226 0.869,0.616 1.802,1.07 2.798,1.363 0.996,0.293 2.022,0.439 3.076,0.439 0.957,0 1.9,-0.132 2.827,-0.395 0.928,-0.264 1.773,-0.62 2.535,-1.07 0.761,-0.449 1.44,-0.913 2.036,-1.391 0.596,-0.479 1.137,-0.992 1.626,-1.538 l 8.349,7.148 c -2.285,2.754 -4.975,4.814 -8.071,6.182 -3.096,1.367 -6.196,2.05 -9.302,2.05 -2.324,0 -4.516,-0.263 -6.577,-0.791 -2.06,-0.527 -3.896,-1.269 -5.508,-2.226 -1.611,-0.957 -3.061,-2.105 -4.35,-3.442 -1.289,-1.338 -2.354,-2.823 -3.194,-4.454 -0.839,-1.63 -1.484,-3.383 -1.933,-5.258 -0.449,-1.875 -0.674,-3.829 -0.674,-5.86 0,-2.324 0.273,-4.507 0.82,-6.548 0.547,-2.041 1.314,-3.852 2.3,-5.434 0.986,-1.582 2.168,-2.998 3.545,-4.248 1.377,-1.25 2.891,-2.281 4.541,-3.091 1.65,-0.811 3.403,-1.431 5.259,-1.86 1.855,-0.43 3.779,-0.645 5.771,-0.645 3.594,0 6.895,0.752 9.903,2.256 3.007,1.504 5.498,3.467 7.47,5.889 l -8.349,7.177 c -1.055,-1.289 -2.408,-2.334 -4.058,-3.134 -1.65,-0.801 -3.306,-1.202 -4.966,-1.202 -1.562,0 -2.992,0.293 -4.292,0.879 -1.299,0.586 -2.378,1.377 -3.237,2.373 -0.859,0.996 -1.523,2.149 -1.992,3.457 -0.469,1.309 -0.703,2.686 -0.703,4.131 0,1.406 0.185,2.71 0.556,3.911 0.371,1.202 0.879,2.237 1.524,3.106"
             style="fill:#ffffff;fill-opacity:1;fill-rule:nonzero;stroke:none"
             id="path24" />
        </g>
        <g
           id="g26"
           transform="translate(275.0283,8.6225)">
          <path
             d="m 0,0 c -0.249,0.581 -0.739,1.068 -1.47,1.461 -0.332,0.178 -1.007,0.463 -2.025,0.855 -0.581,0.222 -0.975,0.422 -1.179,0.602 -0.205,0.181 -0.307,0.381 -0.307,0.603 0,0.22 0.072,0.395 0.215,0.522 0.144,0.128 0.355,0.191 0.631,0.191 0.311,0 0.644,-0.083 1.001,-0.249 0.357,-0.166 0.79,-0.445 1.299,-0.839 l 1.793,2.309 C -0.634,5.975 -1.294,6.378 -2.021,6.663 -2.749,6.947 -3.515,7.082 -4.317,7.065 -5.081,7.049 -5.771,6.88 -6.385,6.559 -6.999,6.238 -7.479,5.802 -7.825,5.251 -8.171,4.7 -8.344,4.088 -8.344,3.412 -8.344,3.069 -8.307,2.748 -8.231,2.449 -8.157,2.15 -8.06,1.886 -7.941,1.656 -7.822,1.427 -7.667,1.21 -7.477,1.005 -7.285,0.8 -7.09,0.626 -6.891,0.481 c 0.2,-0.143 0.43,-0.283 0.694,-0.419 0.262,-0.135 0.509,-0.249 0.738,-0.34 0.23,-0.091 0.491,-0.187 0.785,-0.286 0.625,-0.21 1.036,-0.395 1.233,-0.552 0.196,-0.158 0.295,-0.362 0.295,-0.611 0,-0.215 -0.086,-0.399 -0.258,-0.551 -0.171,-0.153 -0.432,-0.229 -0.781,-0.229 -0.409,0 -0.859,0.11 -1.348,0.328 -0.49,0.219 -0.959,0.555 -1.407,1.009 l -1.827,-2.25 c 0.631,-0.642 1.331,-1.125 2.1,-1.449 0.77,-0.323 1.559,-0.485 2.366,-0.485 0.299,0 0.595,0.02 0.889,0.062 0.293,0.041 0.592,0.109 0.896,0.203 0.305,0.094 0.59,0.213 0.856,0.358 0.265,0.143 0.517,0.323 0.755,0.539 0.238,0.215 0.441,0.458 0.61,0.726 0.169,0.269 0.302,0.582 0.399,0.943 0.096,0.359 0.145,0.75 0.145,1.17 C 0.249,-0.833 0.166,-0.382 0,0 m -14.66,-0.605 h 3.836 V 2.2 h -3.836 v 1.819 h 4.898 v 2.88 h -8.028 v -12.08 h 8.385 v 2.873 h -5.255 z m -9.089,7.504 h -3.255 v -12.08 h 8.053 v 2.873 h -4.798 z m -11.14,-7.414 1.079,3.471 h 0.034 l 1.079,-3.471 z m -0.448,7.414 -4.384,-12.08 h 3.388 l 0.605,1.952 h 3.877 l 0.607,-1.952 h 3.379 l -4.384,12.08 z M -44.331,1.66 c -0.323,-0.237 -0.751,-0.356 -1.282,-0.356 h -0.98 V 4.06 h 0.98 c 0.564,0 1,-0.131 1.307,-0.394 0.307,-0.264 0.46,-0.591 0.46,-0.984 0,-0.443 -0.161,-0.784 -0.485,-1.022 m 1.798,-2.639 c 0.326,0.155 0.614,0.345 0.863,0.573 0.249,0.226 0.462,0.489 0.639,0.788 0.177,0.299 0.311,0.636 0.403,1.009 0.091,0.374 0.137,0.779 0.137,1.216 0,0.631 -0.089,1.204 -0.266,1.718 -0.177,0.515 -0.441,0.966 -0.793,1.354 -0.351,0.387 -0.81,0.687 -1.378,0.901 -0.567,0.213 -1.221,0.319 -1.964,0.319 h -4.839 v -12.08 h 3.138 v 3.687 h 0.747 l 2.275,-3.687 h 3.76 l -2.731,4.177 z m -15.985,3.831 c 0.175,0.252 0.38,0.467 0.615,0.648 0.235,0.18 0.49,0.313 0.764,0.402 0.274,0.089 0.558,0.133 0.851,0.133 1.013,0 1.912,-0.377 2.698,-1.129 l 2.291,1.934 c -0.398,0.476 -0.877,0.885 -1.435,1.224 -0.56,0.341 -1.141,0.594 -1.745,0.76 -0.602,0.166 -1.203,0.249 -1.801,0.249 -0.769,0 -1.485,-0.104 -2.146,-0.315 -0.661,-0.21 -1.237,-0.503 -1.726,-0.88 -0.491,-0.376 -0.909,-0.823 -1.254,-1.341 -0.346,-0.517 -0.607,-1.09 -0.781,-1.719 -0.174,-0.628 -0.261,-1.291 -0.261,-1.988 0,-0.78 0.106,-1.502 0.319,-2.166 0.214,-0.665 0.511,-1.239 0.893,-1.723 0.382,-0.484 0.836,-0.898 1.361,-1.241 0.526,-0.344 1.104,-0.6 1.731,-0.772 0.628,-0.172 1.294,-0.258 1.998,-0.258 0.907,0 1.8,0.138 2.68,0.411 0.881,0.274 1.6,0.621 2.159,1.042 v 5.621 h -5.089 v -2.607 h 2.059 v -1.113 c -0.576,-0.265 -1.179,-0.398 -1.809,-0.398 -0.455,0 -0.87,0.086 -1.247,0.257 -0.376,0.172 -0.684,0.406 -0.925,0.702 -0.241,0.296 -0.427,0.637 -0.56,1.02 -0.133,0.385 -0.199,0.793 -0.199,1.225 0,0.404 0.05,0.779 0.149,1.125 0.1,0.347 0.237,0.646 0.41,0.897 m -9.964,-3.457 h 3.836 V 2.2 h -3.836 v 1.819 h 4.898 v 2.88 h -8.028 v -12.08 h 8.384 v 2.873 h -5.254 z m -13.647,4.624 h 3.071 v -9.2 h 3.213 v 9.2 h 3.055 v 2.88 h -9.339 z m -4.432,-3.927 h -0.042 l -4.034,6.807 h -3.255 v -12.08 h 3.213 v 6.609 h 0.042 l 3.96,-6.609 h 3.354 v 12.08 h -3.238 z m -12.477,-5.273 h 3.279 v 12.08 h -3.279 z m -6.93,6.642 c -0.332,0.178 -1.008,0.463 -2.026,0.855 -0.581,0.222 -0.974,0.422 -1.179,0.602 -0.205,0.181 -0.306,0.381 -0.306,0.603 0,0.22 0.071,0.395 0.215,0.522 0.144,0.128 0.354,0.191 0.631,0.191 0.31,0 0.644,-0.083 1,-0.249 0.358,-0.166 0.79,-0.445 1.3,-0.839 l 1.793,2.309 c -0.593,0.52 -1.252,0.923 -1.981,1.208 -0.727,0.284 -1.493,0.419 -2.294,0.402 -0.764,-0.016 -1.454,-0.185 -2.068,-0.506 -0.614,-0.321 -1.095,-0.757 -1.44,-1.308 -0.346,-0.551 -0.519,-1.163 -0.519,-1.839 0,-0.343 0.037,-0.664 0.112,-0.963 0.075,-0.299 0.171,-0.563 0.291,-0.793 0.119,-0.229 0.273,-0.446 0.464,-0.651 0.191,-0.205 0.386,-0.379 0.585,-0.524 0.2,-0.143 0.431,-0.283 0.694,-0.419 0.262,-0.135 0.509,-0.249 0.739,-0.34 0.229,-0.091 0.491,-0.187 0.784,-0.286 0.626,-0.21 1.036,-0.395 1.234,-0.552 0.196,-0.158 0.293,-0.362 0.293,-0.611 0,-0.215 -0.085,-0.399 -0.256,-0.551 -0.172,-0.153 -0.432,-0.229 -0.781,-0.229 -0.41,0 -0.859,0.11 -1.349,0.328 -0.489,0.219 -0.959,0.555 -1.407,1.009 l -1.827,-2.25 c 0.631,-0.642 1.331,-1.125 2.101,-1.449 0.769,-0.323 1.558,-0.485 2.366,-0.485 0.299,0 0.595,0.02 0.888,0.062 0.294,0.041 0.593,0.109 0.896,0.203 0.305,0.094 0.59,0.213 0.856,0.358 0.265,0.143 0.517,0.323 0.756,0.539 0.237,0.215 0.441,0.458 0.61,0.726 0.168,0.269 0.301,0.582 0.398,0.943 0.097,0.359 0.145,0.75 0.145,1.17 0,0.52 -0.083,0.971 -0.249,1.353 -0.249,0.581 -0.738,1.068 -1.469,1.461 m -14.428,-1.976 1.08,3.471 h 0.033 l 1.08,-3.471 z m -0.448,7.414 -4.384,-12.08 h 3.388 l 0.607,1.952 h 3.877 l 0.605,-1.952 h 3.379 l -4.383,12.08 z M -132.348,0.93 h -0.067 l -3.005,5.969 h -3.271 v -12.08 h 3.196 v 5.97 h 0.042 l 2.034,-3.786 h 2.059 l 2.026,3.769 h 0.05 v -5.953 h 3.196 v 12.08 h -3.279 z m -11.833,0.73 c -0.324,-0.237 -0.751,-0.356 -1.283,-0.356 h -0.979 V 4.06 h 0.979 c 0.565,0 1.001,-0.131 1.308,-0.394 0.307,-0.264 0.461,-0.591 0.461,-0.984 0,-0.443 -0.162,-0.784 -0.486,-1.022 m 1.797,-2.639 c 0.327,0.155 0.615,0.345 0.864,0.573 0.249,0.226 0.462,0.489 0.639,0.788 0.177,0.299 0.311,0.636 0.402,1.009 0.092,0.374 0.138,0.779 0.138,1.216 0,0.631 -0.089,1.204 -0.266,1.718 -0.177,0.515 -0.441,0.966 -0.793,1.354 -0.351,0.387 -0.81,0.687 -1.378,0.901 -0.567,0.213 -1.222,0.319 -1.963,0.319 h -4.841 v -12.08 h 3.139 v 3.687 h 0.747 l 2.275,-3.687 h 3.76 l -2.731,4.177 z m -12.33,0.219 c -0.241,-0.484 -0.584,-0.868 -1.03,-1.153 -0.445,-0.285 -0.947,-0.428 -1.506,-0.428 -0.554,0 -1.053,0.143 -1.499,0.428 -0.445,0.285 -0.792,0.669 -1.038,1.153 -0.246,0.485 -0.369,1.023 -0.369,1.615 0,0.592 0.123,1.132 0.369,1.62 0.246,0.486 0.591,0.871 1.034,1.153 0.442,0.282 0.943,0.424 1.503,0.424 0.559,0 1.061,-0.143 1.506,-0.428 0.446,-0.285 0.789,-0.67 1.03,-1.154 0.24,-0.485 0.361,-1.023 0.361,-1.615 0,-0.592 -0.121,-1.13 -0.361,-1.615 m 1.98,6.119 c -0.548,0.539 -1.209,0.96 -1.984,1.262 -0.775,0.302 -1.616,0.452 -2.524,0.452 -0.919,0 -1.769,-0.152 -2.549,-0.456 -0.78,-0.305 -1.444,-0.728 -1.992,-1.27 -0.549,-0.542 -0.976,-1.2 -1.283,-1.972 -0.307,-0.772 -0.461,-1.612 -0.461,-2.52 0,-0.908 0.154,-1.746 0.461,-2.515 0.307,-0.77 0.734,-1.425 1.283,-1.968 0.548,-0.542 1.212,-0.966 1.992,-1.269 0.78,-0.305 1.63,-0.457 2.549,-0.457 0.908,0 1.749,0.15 2.524,0.452 0.775,0.301 1.436,0.722 1.984,1.261 0.547,0.54 0.977,1.197 1.287,1.968 0.309,0.773 0.465,1.615 0.465,2.528 0,0.914 -0.156,1.757 -0.465,2.533 -0.31,0.774 -0.74,1.431 -1.287,1.971 m -19.716,-10.54 h 3.138 v 4.061 h 4.226 v 2.864 h -4.226 v 2.275 h 5.164 v 2.88 h -8.302 z m -6.649,4.576 h 3.836 V 2.2 h -3.836 v 1.819 h 4.899 v 2.88 h -8.029 v -12.08 h 8.386 v 2.873 h -5.256 z m -8.603,2.265 c -0.324,-0.237 -0.751,-0.356 -1.283,-0.356 h -0.979 V 4.06 h 0.979 c 0.565,0 1.001,-0.131 1.308,-0.394 0.307,-0.264 0.461,-0.591 0.461,-0.984 0,-0.443 -0.162,-0.784 -0.486,-1.022 m 1.797,-2.639 c 0.327,0.155 0.615,0.345 0.864,0.573 0.249,0.226 0.462,0.489 0.639,0.788 0.177,0.299 0.311,0.636 0.402,1.009 0.092,0.374 0.138,0.779 0.138,1.216 0,0.631 -0.089,1.204 -0.266,1.718 -0.177,0.515 -0.441,0.966 -0.793,1.354 -0.351,0.387 -0.81,0.687 -1.378,0.901 -0.567,0.213 -1.222,0.319 -1.963,0.319 h -4.841 v -12.08 h 3.139 v 3.687 h 0.747 l 2.275,-3.687 h 3.76 l -2.731,4.177 z"
             style="fill:#ffffff;fill-opacity:1;fill-rule:nonzero;stroke:none"
             id="path28" />
        </g>
        <g
           id="g30"
           transform="translate(275.0283,8.6225)">
          <path
             d="m 0,0 c -0.249,0.581 -0.739,1.068 -1.47,1.461 -0.332,0.178 -1.007,0.463 -2.025,0.855 -0.581,0.222 -0.975,0.422 -1.179,0.602 -0.205,0.181 -0.307,0.381 -0.307,0.603 0,0.22 0.072,0.395 0.215,0.522 0.144,0.128 0.355,0.191 0.631,0.191 0.311,0 0.644,-0.083 1.001,-0.249 0.357,-0.166 0.79,-0.445 1.299,-0.839 l 1.793,2.309 C -0.634,5.975 -1.294,6.378 -2.021,6.663 -2.749,6.947 -3.515,7.082 -4.317,7.065 -5.081,7.049 -5.771,6.88 -6.385,6.559 -6.999,6.238 -7.479,5.802 -7.825,5.251 -8.171,4.7 -8.344,4.088 -8.344,3.412 -8.344,3.069 -8.307,2.748 -8.231,2.449 -8.157,2.15 -8.06,1.886 -7.941,1.656 -7.822,1.427 -7.667,1.21 -7.477,1.005 -7.285,0.8 -7.09,0.626 -6.891,0.481 c 0.2,-0.143 0.43,-0.283 0.694,-0.419 0.262,-0.135 0.509,-0.249 0.738,-0.34 0.23,-0.091 0.491,-0.187 0.785,-0.286 0.625,-0.21 1.036,-0.395 1.233,-0.552 0.196,-0.158 0.295,-0.362 0.295,-0.611 0,-0.215 -0.086,-0.399 -0.258,-0.551 -0.171,-0.153 -0.432,-0.229 -0.781,-0.229 -0.409,0 -0.859,0.11 -1.348,0.328 -0.49,0.219 -0.959,0.555 -1.407,1.009 l -1.827,-2.25 c 0.631,-0.642 1.331,-1.125 2.1,-1.449 0.77,-0.323 1.559,-0.485 2.366,-0.485 0.299,0 0.595,0.02 0.889,0.062 0.293,0.041 0.592,0.109 0.896,0.203 0.305,0.094 0.59,0.213 0.856,0.358 0.265,0.143 0.517,0.323 0.755,0.539 0.238,0.215 0.441,0.458 0.61,0.726 0.169,0.269 0.302,0.582 0.399,0.943 0.096,0.359 0.145,0.75 0.145,1.17 C 0.249,-0.833 0.166,-0.382 0,0 m -14.66,-0.605 h 3.836 V 2.2 h -3.836 v 1.819 h 4.898 v 2.88 h -8.028 v -12.08 h 8.385 v 2.873 h -5.255 z m -9.089,7.504 h -3.255 v -12.08 h 8.053 v 2.873 h -4.798 z m -11.14,-7.414 1.079,3.471 h 0.034 l 1.079,-3.471 z m -0.448,7.414 -4.384,-12.08 h 3.388 l 0.605,1.952 h 3.877 l 0.607,-1.952 h 3.379 l -4.384,12.08 z M -44.331,1.66 c -0.323,-0.237 -0.751,-0.356 -1.282,-0.356 h -0.98 V 4.06 h 0.98 c 0.564,0 1,-0.131 1.307,-0.394 0.307,-0.264 0.46,-0.591 0.46,-0.984 0,-0.443 -0.161,-0.784 -0.485,-1.022 m 1.798,-2.639 c 0.326,0.155 0.614,0.345 0.863,0.573 0.249,0.226 0.462,0.489 0.639,0.788 0.177,0.299 0.311,0.636 0.403,1.009 0.091,0.374 0.137,0.779 0.137,1.216 0,0.631 -0.089,1.204 -0.266,1.718 -0.177,0.515 -0.441,0.966 -0.793,1.354 -0.351,0.387 -0.81,0.687 -1.378,0.901 -0.567,0.213 -1.221,0.319 -1.964,0.319 h -4.839 v -12.08 h 3.138 v 3.687 h 0.747 l 2.275,-3.687 h 3.76 l -2.731,4.177 z m -15.985,3.831 c 0.175,0.252 0.38,0.467 0.615,0.648 0.235,0.18 0.49,0.313 0.764,0.402 0.274,0.089 0.558,0.133 0.851,0.133 1.013,0 1.912,-0.377 2.698,-1.129 l 2.291,1.934 c -0.398,0.476 -0.877,0.885 -1.435,1.224 -0.56,0.341 -1.141,0.594 -1.745,0.76 -0.602,0.166 -1.203,0.249 -1.801,0.249 -0.769,0 -1.485,-0.104 -2.146,-0.315 -0.661,-0.21 -1.237,-0.503 -1.726,-0.88 -0.491,-0.376 -0.909,-0.823 -1.254,-1.341 -0.346,-0.517 -0.607,-1.09 -0.781,-1.719 -0.174,-0.628 -0.261,-1.291 -0.261,-1.988 0,-0.78 0.106,-1.502 0.319,-2.166 0.214,-0.665 0.511,-1.239 0.893,-1.723 0.382,-0.484 0.836,-0.898 1.361,-1.241 0.526,-0.344 1.104,-0.6 1.731,-0.772 0.628,-0.172 1.294,-0.258 1.998,-0.258 0.907,0 1.8,0.138 2.68,0.411 0.881,0.274 1.6,0.621 2.159,1.042 v 5.621 h -5.089 v -2.607 h 2.059 v -1.113 c -0.576,-0.265 -1.179,-0.398 -1.809,-0.398 -0.455,0 -0.87,0.086 -1.247,0.257 -0.376,0.172 -0.684,0.406 -0.925,0.702 -0.241,0.296 -0.427,0.637 -0.56,1.02 -0.133,0.385 -0.199,0.793 -0.199,1.225 0,0.404 0.05,0.779 0.149,1.125 0.1,0.347 0.237,0.646 0.41,0.897 m -9.964,-3.457 h 3.836 V 2.2 h -3.836 v 1.819 h 4.898 v 2.88 h -8.028 v -12.08 h 8.384 v 2.873 h -5.254 z m -13.647,4.624 h 3.071 v -9.2 h 3.213 v 9.2 h 3.055 v 2.88 h -9.339 z m -4.432,-3.927 h -0.042 l -4.034,6.807 h -3.255 v -12.08 h 3.213 v 6.609 h 0.042 l 3.96,-6.609 h 3.354 v 12.08 h -3.238 z m -12.477,-5.273 h 3.279 v 12.08 h -3.279 z m -6.93,6.642 c -0.332,0.178 -1.008,0.463 -2.026,0.855 -0.581,0.222 -0.974,0.422 -1.179,0.602 -0.205,0.181 -0.306,0.381 -0.306,0.603 0,0.22 0.071,0.395 0.215,0.522 0.144,0.128 0.354,0.191 0.631,0.191 0.31,0 0.644,-0.083 1,-0.249 0.358,-0.166 0.79,-0.445 1.3,-0.839 l 1.793,2.309 c -0.593,0.52 -1.252,0.923 -1.981,1.208 -0.727,0.284 -1.493,0.419 -2.294,0.402 -0.764,-0.016 -1.454,-0.185 -2.068,-0.506 -0.614,-0.321 -1.095,-0.757 -1.44,-1.308 -0.346,-0.551 -0.519,-1.163 -0.519,-1.839 0,-0.343 0.037,-0.664 0.112,-0.963 0.075,-0.299 0.171,-0.563 0.291,-0.793 0.119,-0.229 0.273,-0.446 0.464,-0.651 0.191,-0.205 0.386,-0.379 0.585,-0.524 0.2,-0.143 0.431,-0.283 0.694,-0.419 0.262,-0.135 0.509,-0.249 0.739,-0.34 0.229,-0.091 0.491,-0.187 0.784,-0.286 0.626,-0.21 1.036,-0.395 1.234,-0.552 0.196,-0.158 0.293,-0.362 0.293,-0.611 0,-0.215 -0.085,-0.399 -0.256,-0.551 -0.172,-0.153 -0.432,-0.229 -0.781,-0.229 -0.41,0 -0.859,0.11 -1.349,0.328 -0.489,0.219 -0.959,0.555 -1.407,1.009 l -1.827,-2.25 c 0.631,-0.642 1.331,-1.125 2.101,-1.449 0.769,-0.323 1.558,-0.485 2.366,-0.485 0.299,0 0.595,0.02 0.888,0.062 0.294,0.041 0.593,0.109 0.896,0.203 0.305,0.094 0.59,0.213 0.856,0.358 0.265,0.143 0.517,0.323 0.756,0.539 0.237,0.215 0.441,0.458 0.61,0.726 0.168,0.269 0.301,0.582 0.398,0.943 0.097,0.359 0.145,0.75 0.145,1.17 0,0.52 -0.083,0.971 -0.249,1.353 -0.249,0.581 -0.738,1.068 -1.469,1.461 m -14.428,-1.976 1.08,3.471 h 0.033 l 1.08,-3.471 z m -0.448,7.414 -4.384,-12.08 h 3.388 l 0.607,1.952 h 3.877 l 0.605,-1.952 h 3.379 l -4.383,12.08 z M -132.348,0.93 h -0.067 l -3.005,5.969 h -3.271 v -12.08 h 3.196 v 5.97 h 0.042 l 2.034,-3.786 h 2.059 l 2.026,3.769 h 0.05 v -5.953 h 3.196 v 12.08 h -3.279 z m -11.833,0.73 c -0.324,-0.237 -0.751,-0.356 -1.283,-0.356 h -0.979 V 4.06 h 0.979 c 0.565,0 1.001,-0.131 1.308,-0.394 0.307,-0.264 0.461,-0.591 0.461,-0.984 0,-0.443 -0.162,-0.784 -0.486,-1.022 m 1.797,-2.639 c 0.327,0.155 0.615,0.345 0.864,0.573 0.249,0.226 0.462,0.489 0.639,0.788 0.177,0.299 0.311,0.636 0.402,1.009 0.092,0.374 0.138,0.779 0.138,1.216 0,0.631 -0.089,1.204 -0.266,1.718 -0.177,0.515 -0.441,0.966 -0.793,1.354 -0.351,0.387 -0.81,0.687 -1.378,0.901 -0.567,0.213 -1.222,0.319 -1.963,0.319 h -4.841 v -12.08 h 3.139 v 3.687 h 0.747 l 2.275,-3.687 h 3.76 l -2.731,4.177 z m -12.33,0.219 c -0.241,-0.484 -0.584,-0.868 -1.03,-1.153 -0.445,-0.285 -0.947,-0.428 -1.506,-0.428 -0.554,0 -1.053,0.143 -1.499,0.428 -0.445,0.285 -0.792,0.669 -1.038,1.153 -0.246,0.485 -0.369,1.023 -0.369,1.615 0,0.592 0.123,1.132 0.369,1.62 0.246,0.486 0.591,0.871 1.034,1.153 0.442,0.282 0.943,0.424 1.503,0.424 0.559,0 1.061,-0.143 1.506,-0.428 0.446,-0.285 0.789,-0.67 1.03,-1.154 0.24,-0.485 0.361,-1.023 0.361,-1.615 0,-0.592 -0.121,-1.13 -0.361,-1.615 m 1.98,6.119 c -0.548,0.539 -1.209,0.96 -1.984,1.262 -0.775,0.302 -1.616,0.452 -2.524,0.452 -0.919,0 -1.769,-0.152 -2.549,-0.456 -0.78,-0.305 -1.444,-0.728 -1.992,-1.27 -0.549,-0.542 -0.976,-1.2 -1.283,-1.972 -0.307,-0.772 -0.461,-1.612 -0.461,-2.52 0,-0.908 0.154,-1.746 0.461,-2.515 0.307,-0.77 0.734,-1.425 1.283,-1.968 0.548,-0.542 1.212,-0.966 1.992,-1.269 0.78,-0.305 1.63,-0.457 2.549,-0.457 0.908,0 1.749,0.15 2.524,0.452 0.775,0.301 1.436,0.722 1.984,1.261 0.547,0.54 0.977,1.197 1.287,1.968 0.309,0.773 0.465,1.615 0.465,2.528 0,0.914 -0.156,1.757 -0.465,2.533 -0.31,0.774 -0.74,1.431 -1.287,1.971 m -19.716,-10.54 h 3.138 v 4.061 h 4.226 v 2.864 h -4.226 v 2.275 h 5.164 v 2.88 h -8.302 z m -6.649,4.576 h 3.836 V 2.2 h -3.836 v 1.819 h 4.899 v 2.88 h -8.029 v -12.08 h 8.386 v 2.873 h -5.256 z m -8.603,2.265 c -0.324,-0.237 -0.751,-0.356 -1.283,-0.356 h -0.979 V 4.06 h 0.979 c 0.565,0 1.001,-0.131 1.308,-0.394 0.307,-0.264 0.461,-0.591 0.461,-0.984 0,-0.443 -0.162,-0.784 -0.486,-1.022 m 1.797,-2.639 c 0.327,0.155 0.615,0.345 0.864,0.573 0.249,0.226 0.462,0.489 0.639,0.788 0.177,0.299 0.311,0.636 0.402,1.009 0.092,0.374 0.138,0.779 0.138,1.216 0,0.631 -0.089,1.204 -0.266,1.718 -0.177,0.515 -0.441,0.966 -0.793,1.354 -0.351,0.387 -0.81,0.687 -1.378,0.901 -0.567,0.213 -1.222,0.319 -1.963,0.319 h -4.841 v -12.08 h 3.139 v 3.687 h 0.747 l 2.275,-3.687 h 3.76 l -2.731,4.177 z"
             style="fill:#ffffff;fill-opacity:1;fill-rule:nonzero;stroke:none"
             id="path32" />
        </g>
        <g
           id="g34"
           transform="translate(272.3789,37.8109)">
          <path
             d="m 0,0 c -16.879,-0.001 -33.758,-0.003 -50.638,-0.003 -22.39,0 -44.782,0.004 -67.173,0.003 -21.166,0 -42.332,0.019 -63.498,-0.013 -11.212,-0.016 -21.17,3.398 -29.538,10.908 -11.718,10.514 -16.478,23.78 -14.548,39.296 0.692,5.561 1.933,11.081 5.236,15.941 7.496,11.024 16.956,19.097 30.581,21.237 14.833,2.329 27.759,-1.567 38.64,-11.959 1.759,-1.681 3.306,-3.584 5.049,-5.491 h 14.193 c -1.772,2.756 -3.03,5.067 -4.617,7.124 -13.935,18.061 -32.383,25.888 -54.833,22.323 -27.184,-4.316 -45.109,-26.886 -46.592,-50.829 -1.473,-23.787 8.574,-41.625 28.833,-53.732 8.687,-5.192 18.369,-7.018 28.489,-7.003 44.988,0.068 89.976,0.029 134.964,0.028 15.373,0 30.746,10e-4 46.119,10e-4 h 3.56 V 0 C 2.641,0 1.32,0.001 0,0"
             style="fill:#2b5aa6;fill-opacity:1;fill-rule:nonzero;stroke:none"
             id="path36" />
        </g>
        <g
           id="g38"
           transform="translate(87.1802,167.9081)">
          <path
             d="M 0,0 C 1.051,1.097 2.209,2.092 3.368,3.181 4.071,2.696 4.585,2.453 4.953,2.07 c 2.986,-3.104 5.925,-6.255 8.918,-9.355 12.462,-12.911 24.971,-25.775 37.385,-38.732 3.439,-3.59 6.453,-7.592 9.96,-11.108 1.867,-1.873 4.04,-3.489 7.21,-3.294 4.994,0.306 10.019,0.095 15.03,0.132 1.179,0.009 2.358,0.134 3.538,0.206 0.124,0.221 0.249,0.442 0.373,0.663 -2.516,2.675 -5.017,5.364 -7.55,8.022 -3.794,3.982 -7.604,7.949 -11.421,11.908 -2.939,3.048 -5.782,6.202 -8.887,9.072 -2.914,2.694 -4.753,5.515 -4.464,9.781 0.361,5.319 0.093,10.681 0.066,16.025 -0.004,0.848 -0.165,1.695 -0.254,2.549 H 41.149 v -8.092 c -0.238,-0.134 -0.476,-0.268 -0.714,-0.403 -12.293,12.71 -24.585,25.419 -36.85,38.099 -5.381,-4.339 -82.827,-85.27 -83.776,-87.519 0.306,-0.093 0.605,-0.262 0.903,-0.264 6.568,-0.033 13.137,-0.117 19.702,0.003 1.062,0.019 2.215,0.819 3.13,1.515 0.953,0.723 1.644,1.781 2.489,2.654 9.634,9.958 19.299,19.887 28.908,29.868 C -16.678,-17.494 -8.362,-8.725 0,0"
             style="fill:#ffffff;fill-opacity:1;fill-rule:nonzero;stroke:none"
             id="path40" />
        </g>
      </g>
    </g>
  </g>
</svg>
