<svg style="width:12em;margin-left:0px" id="Capa_1" data-name="Capa 1" xmlns="http://www.w3.org/2000/svg" viewBox="0 0 836.58 61.83"><polygon points="791.16 57.03 791.16 46.63 825.45 30.39 791.16 14.15 791.16 3.83 836.58 26 836.58 34.91 791.16 57.03" style="fill: black;"></polygon><path d="M91.21,67h3.53a29.47,29.47,0,0,0,8.78-1.11,17.84,17.84,0,0,0,12.1-17.49,18.07,18.07,0,0,0-5.71-13.85q-5.14-4.74-15.17-4.74H91.21Zm-7.83,7.36V22.46H94.27q7.85,0,12.38,1.55a23.08,23.08,0,0,1,8.84,5.14q8,7.34,8,19.26t-8.37,19.37a24.46,24.46,0,0,1-8.81,5.14q-4.31,1.45-12.2,1.45Z" transform="translate(-15.21 -18.08)" style="fill: black;"></path><polygon points="152.88 11.74 132.07 11.74 132.07 24.21 152.28 24.21 152.28 31.57 132.07 31.57 132.07 48.92 152.88 48.92 152.88 56.28 124.24 56.28 124.24 4.38 152.88 4.38 152.88 11.74" style="fill: black;"></polygon><polygon points="171.87 4.38 186.22 40.35 200.78 4.38 209.35 4.38 186.05 60.18 163.29 4.38 171.87 4.38" style="fill: black;"></polygon><polygon points="250.52 11.74 229.72 11.74 229.72 24.21 249.92 24.21 249.92 31.57 229.72 31.57 229.72 48.92 250.52 48.92 250.52 56.28 221.88 56.28 221.88 4.38 250.52 4.38 250.52 11.74" style="fill: black;"></polygon><polygon points="287.49 1.9 287.49 46.24 305.21 46.24 305.21 58.76 272.71 58.76 272.71 1.9 287.49 1.9" style="fill: black;"></polygon><polygon points="400.52 1.9 414.25 36.51 428.05 1.9 444.11 1.9 420.13 58.76 408.36 58.76 384.46 1.9 400.52 1.9" style="fill: black;"></polygon><polygon points="488.22 14.42 470.65 14.42 470.65 23.92 487.24 23.92 487.24 36.44 470.65 36.44 470.65 46.24 488.22 46.24 488.22 58.76 455.87 58.76 455.87 1.9 488.22 1.9 488.22 14.42" style="fill: black;"></polygon><polygon points="510.4 55.8 521.33 0 539.15 40.34 557.6 0 567.42 55.8 559.38 55.8 554.38 24.47 539.01 58.19 524.08 24.44 518.5 55.8 510.4 55.8" style="fill: black;"></polygon><polygon points="605.54 11.26 584.73 11.26 584.73 23.73 604.93 23.73 604.93 31.09 584.73 31.09 584.73 48.44 605.54 48.44 605.54 55.81 576.9 55.81 576.9 3.9 605.54 3.9 605.54 11.26" style="fill: black;"></polygon><polygon points="614.31 55.8 614.31 0.37 652.17 39.97 652.17 3.9 660 3.9 660 58.97 622.15 19.46 622.15 55.8 614.31 55.8" style="fill: black;"></polygon><polygon points="685.25 11.26 685.25 55.81 677.41 55.81 677.41 11.26 665.48 11.26 665.48 3.9 697.15 3.9 697.15 11.26 685.25 11.26" style="fill: black;"></polygon><path d="M747.12,29.71l-6.36,3.77a10.83,10.83,0,0,0-3.39-4,9,9,0,0,0-9.75.77,5.72,5.72,0,0,0-2.16,4.57c0,2.53,1.89,4.57,5.65,6.12L736.29,43q6.32,2.55,9.25,6.23a14.08,14.08,0,0,1,2.92,9,15.85,15.85,0,0,1-4.77,11.83,16.4,16.4,0,0,1-11.94,4.71,16,16,0,0,1-11.16-4q-4.33-4-5.41-11.26l7.93-1.75q.54,4.57,1.89,6.32a8.94,8.94,0,0,0,13.14.9,8.47,8.47,0,0,0,2.42-6.21,8.76,8.76,0,0,0-.42-2.78,7.15,7.15,0,0,0-1.31-2.32,10.89,10.89,0,0,0-2.3-2A22.22,22.22,0,0,0,733.17,50l-5-2.09q-10.67-4.5-10.66-13.18A12.49,12.49,0,0,1,722,24.94a16.18,16.18,0,0,1,11.13-4q9,0,14,8.74" transform="translate(-15.21 -18.08)" style="fill: black;"></path><path d="M330.58,34.62c-.3-5.69,3.14-10.26,9-12.84,6.44-2.82,10.79-2.08,15.32,1.61,3.51,2.88,5.59,4.09,9.69.2a13.8,13.8,0,0,1,19.35.74c4.81,5.23,6.5,11.69,2,17.94C378.27,52.83,370.12,63,362.22,73.44c-1.45,1.9-2.59,2.53-4.34.24C349.61,62.89,340.64,52.61,333,41.35a14.62,14.62,0,0,1-2.45-6.73" transform="translate(-15.21 -18.08)" style="fill:rgb(20,174,170)"></path><rect x="747.08" y="47.1" width="60.38" height="6.56" transform="translate(452.7 747.13) rotate(-70.31)" style="fill: black;"></rect><polygon points="45.42 5.7 45.42 16.1 11.13 32.34 45.42 48.58 45.42 58.9 0 36.73 0 27.82 45.42 5.7" style="fill: black;"></polygon></svg>