<svg version="1.1" id="Capa_1" x="0" y="0" viewBox="0 0 841.9 344.7" style="enable-background:new 0 0 841.9 344.7" xml:space="preserve" xmlns:xlink="http://www.w3.org/1999/xlink" xmlns="http://www.w3.org/2000/svg"><defs id="defs59"><clipPath clipPathUnits="userSpaceOnUse" id="clipPath1773"/><clipPath clipPathUnits="userSpaceOnUse" id="clipPath1035"><path id="lpe_path-effect1039" style="fill:#63d17a;fill-opacity:.709924;stroke:#a2e84f;stroke-width:112.134;stroke-opacity:0" class="powerclip" d="M-81.056 151.031H63.762v93.326H-81.056zm80.39-38.057A53.676 51.977 0 0 0-54.34 60.996a53.676 51.977 0 0 0-53.676 51.978 53.676 51.977 0 0 0 53.676 51.977A53.676 51.977 0 0 0-.665 112.974z"/></clipPath><clipPath clipPathUnits="userSpaceOnUse" id="clipPath964"><path id="lpe_path-effect968" style="opacity:1;fill:#30ba94;fill-opacity:.683206;stroke:#a2e84f;stroke-width:92.5571;stroke-opacity:0" class="powerclip" d="M-81.056 151.031H63.762v93.326H-81.056zm80.39-38.057A53.676 51.977 0 0 0-54.34 60.996a53.676 51.977 0 0 0-53.676 51.978 53.676 51.977 0 0 0 53.676 51.977A53.676 51.977 0 0 0-.665 112.974z"/></clipPath><clipPath clipPathUnits="userSpaceOnUse" id="clipPath3894"><path style="color:#000;fill:#3c9fba;stroke-width:120.945;-inkscape-stroke:none" d="M66.65 288.175H169.4v156.75H66.65z" id="path3896"/></clipPath><clipPath clipPathUnits="userSpaceOnUse" id="clipPath4972"><path style="opacity:.722084;fill:#3c9fba;fill-opacity:1;stroke:#4fa6e8;stroke-width:120.945;stroke-opacity:0" id="rect4974" d="M58.321 114.784h118v197.5h-118z"/></clipPath><clipPath clipPathUnits="userSpaceOnUse" id="clipPath4972-9"><path style="opacity:.722084;fill:#3c9fba;fill-opacity:1;stroke:#4fa6e8;stroke-width:120.945;stroke-opacity:0" id="rect4974-6" d="M58.321 114.784h118v197.5h-118z"/></clipPath><clipPath clipPathUnits="userSpaceOnUse" id="clipPath4972-0"><path style="opacity:.722084;fill:#3c9fba;fill-opacity:1;stroke:#4fa6e8;stroke-width:120.945;stroke-opacity:0" id="rect4974-7" d="M58.321 114.784h118v197.5h-118z"/></clipPath><clipPath clipPathUnits="userSpaceOnUse" id="clipPath1267"><path style="opacity:.722084;fill:#69bd44;stroke:#4fa6e8;stroke-width:120.945;stroke-opacity:0" id="rect1269" transform="rotate(23.923)" d="M146.634 78.07h83.439v120.208h-83.439z"/></clipPath><clipPath clipPathUnits="userSpaceOnUse" id="clipPath6818"><ellipse style="display:block;fill:#63d17a;fill-opacity:.709924;stroke:#a2e84f;stroke-width:92.5571;stroke-opacity:0" id="ellipse6820" cx="-54.955" cy="125.794" rx="45.258" ry="39.066" transform="skewY(.294) scale(.99999 1)"/></clipPath><clipPath clipPathUnits="userSpaceOnUse" id="clipath_lpe_path-effect1700-2"/><clipPath clipPathUnits="userSpaceOnUse" id="clipPath1694-0"><path id="lpe_path-effect1700-9" style="fill:url(#linearGradient1698);fill-opacity:1;stroke:#a2e84f;stroke-width:38.4451;stroke-opacity:0" class="powerclip" d="M-81.056 151.031H63.762v93.326H-81.056zm75.116-32.72a48.866 46.14 0 0 0-48.866-46.14 48.866 46.14 0 0 0-48.866 46.14 48.866 46.14 0 0 0 48.866 46.141 48.866 46.14 0 0 0 48.866-46.14z"/></clipPath><clipPath clipPathUnits="userSpaceOnUse" id="clipPath1694"><path id="lpe_path-effect1700" style="fill:url(#linearGradient1698);fill-opacity:1;stroke:#a2e84f;stroke-width:38.4451;stroke-opacity:0" class="powerclip" d="M-81.056 151.031H63.762v93.326H-81.056zm80.39-38.057A53.676 51.977 0 0 0-54.34 60.996a53.676 51.977 0 0 0-53.676 51.978 53.676 51.977 0 0 0 53.676 51.977A53.676 51.977 0 0 0-.665 112.974z"/></clipPath><filter style="color-interpolation-filters:sRGB" id="filter8659-5" x="-.364" y="-.188" width="2.019" height="1.375"><feFlood flood-opacity="0" flood-color="#000" result="flood" id="feFlood8649-5"/><feComposite in="flood" in2="SourceGraphic" operator="in" result="composite1" id="feComposite8651-1"/><feGaussianBlur in="composite1" stdDeviation="4.706" result="blur" id="feGaussianBlur8653-7"/><feOffset dx="9" dy="0" result="offset" id="feOffset8655-8"/><feComposite in="SourceGraphic" in2="offset" operator="over" result="composite2" id="feComposite8657-29"/></filter><filter style="color-interpolation-filters:sRGB" id="filter8659-3" x="-.364" y="-.188" width="2.019" height="1.375"><feFlood flood-opacity="0" flood-color="#000" result="flood" id="feFlood8649-1"/><feComposite in="flood" in2="SourceGraphic" operator="in" result="composite1" id="feComposite8651-6"/><feGaussianBlur in="composite1" stdDeviation="4.706" result="blur" id="feGaussianBlur8653-3"/><feOffset dx="9" dy="0" result="offset" id="feOffset8655-6"/><feComposite in="SourceGraphic" in2="offset" operator="over" result="composite2" id="feComposite8657-6"/></filter><filter style="color-interpolation-filters:sRGB" id="filter8659-1-9" x="-.364" y="-.188" width="2.019" height="1.375"><feFlood flood-opacity="0" flood-color="#000" result="flood" id="feFlood8649-9-95"/><feComposite in="flood" in2="SourceGraphic" operator="in" result="composite1" id="feComposite8651-4-1"/><feGaussianBlur in="composite1" stdDeviation="4.706" result="blur" id="feGaussianBlur8653-6-1"/><feOffset dx="9" dy="0" result="offset" id="feOffset8655-5-9"/><feComposite in="SourceGraphic" in2="offset" operator="over" result="composite2" id="feComposite8657-2-9"/></filter><filter style="color-interpolation-filters:sRGB" id="filter8659-1-6" x="-.364" y="-.188" width="2.019" height="1.375"><feFlood flood-opacity="0" flood-color="#000" result="flood" id="feFlood8649-9-9"/><feComposite in="flood" in2="SourceGraphic" operator="in" result="composite1" id="feComposite8651-4-7"/><feGaussianBlur in="composite1" stdDeviation="4.706" result="blur" id="feGaussianBlur8653-6-5"/><feOffset dx="9" dy="0" result="offset" id="feOffset8655-5-5"/><feComposite in="SourceGraphic" in2="offset" operator="over" result="composite2" id="feComposite8657-2-3"/></filter><filter style="color-interpolation-filters:sRGB" id="filter8659-1" x="-.364" y="-.188" width="2.019" height="1.375"><feFlood flood-opacity="0" flood-color="#000" result="flood" id="feFlood8649-9"/><feComposite in="flood" in2="SourceGraphic" operator="in" result="composite1" id="feComposite8651-4"/><feGaussianBlur in="composite1" stdDeviation="4.706" result="blur" id="feGaussianBlur8653-6"/><feOffset dx="9" dy="0" result="offset" id="feOffset8655-5"/><feComposite in="SourceGraphic" in2="offset" operator="over" result="composite2" id="feComposite8657-2"/></filter><filter style="color-interpolation-filters:sRGB" id="filter8659" x="-.364" y="-.188" width="2.019" height="1.375"><feFlood flood-opacity="0" flood-color="#000" result="flood" id="feFlood8649"/><feComposite in="flood" in2="SourceGraphic" operator="in" result="composite1" id="feComposite8651"/><feGaussianBlur in="composite1" stdDeviation="4.706" result="blur" id="feGaussianBlur8653"/><feOffset dx="9" dy="0" result="offset" id="feOffset8655"/><feComposite in="SourceGraphic" in2="offset" operator="over" result="composite2" id="feComposite8657"/></filter><linearGradient xlink:href="#linearGradient2760" id="linearGradient1688" gradientUnits="userSpaceOnUse" gradientTransform="translate(-171.853 -59.884)" x1="166.551" y1="289.679" x2="130.829" y2="272.716"/><linearGradient id="linearGradient2760"><stop style="stop-color:#278dce;stop-opacity:1" offset="0" id="stop2756"/><stop style="stop-color:#97ba3c;stop-opacity:1" offset="1" id="stop2758"/></linearGradient><linearGradient xlink:href="#linearGradient1210" id="linearGradient1698" gradientUnits="userSpaceOnUse" gradientTransform="matrix(.26845 0 0 .37302 -112.287 131.665)" x1="-28.652" y1="-35.798" x2="456.9" y2="-35.798"/><linearGradient id="linearGradient1210"><stop style="stop-color:#30ba6e;stop-opacity:1" offset="0" id="stop1206"/><stop style="stop-color:#30ba6e;stop-opacity:0" offset="1" id="stop1208"/></linearGradient></defs><style type="text/css" id="style2">.st0{fill:#69bd45}.st1{fill:#114c96}</style><g id="g3655" transform="translate(0 -39.866)"><g id="g38" transform="translate(1.68 22.716)"><g id="g36"><path class="st0" d="m382.8 259.4 5.8 3c-1.9 3.7-4.1 6.8-6.6 9-2.5 2.3-5.3 4-8.4 5.2-3.1 1.2-6.6 1.8-10.6 1.8-8.7 0-15.5-2.9-20.5-8.6-4.9-5.7-7.4-12.2-7.4-19.4 0-6.8 2.1-12.8 6.2-18.1 5.3-6.7 12.3-10.1 21.2-10.1 9.1 0 16.4 3.5 21.8 10.4 3.9 4.9 5.8 11 5.9 18.3h-48.1c.1 6.2 2.1 11.3 6 15.3 3.8 4 8.6 6 14.2 6 2.7 0 5.4-.5 7.9-1.4 2.6-1 4.8-2.2 6.6-3.8 1.9-1.6 3.9-4.1 6-7.6zm0-14.4c-.9-3.7-2.3-6.6-4-8.8-1.8-2.2-4.1-4-7-5.3-2.9-1.3-5.9-2-9.1-2-5.2 0-9.8 1.7-13.5 5.1-2.8 2.5-4.8 6.1-6.2 11.1h39.8z" id="path24" style="fill:#97ba3c;fill-opacity:1"/><path class="st0" d="M403.2 223.6h6.9v9.6c2.8-3.7 5.8-6.4 9.1-8.2 3.3-1.8 7-2.7 10.9-2.7 4 0 7.5 1 10.6 3 3.1 2 5.4 4.8 6.9 8.2 1.5 3.4 2.2 8.8 2.2 16.1v27.5h-6.9v-25.5c0-6.2-.3-10.3-.8-12.3-.8-3.5-2.3-6.2-4.6-8-2.3-1.8-5.2-2.7-8.8-2.7-4.2 0-7.9 1.4-11.2 4.1-3.3 2.8-5.5 6.2-6.5 10.2-.7 2.7-1 7.5-1 14.5V277h-6.9v-53.4z" id="path26" style="fill:#97ba3c;fill-opacity:1"/><path class="st0" d="m509.6 259.4 5.8 3c-1.9 3.7-4.1 6.8-6.6 9-2.5 2.3-5.3 4-8.4 5.2-3.1 1.2-6.6 1.8-10.6 1.8-8.7 0-15.5-2.9-20.5-8.6-4.9-5.7-7.4-12.2-7.4-19.4 0-6.8 2.1-12.8 6.2-18.1 5.3-6.7 12.3-10.1 21.2-10.1 9.1 0 16.4 3.5 21.8 10.4 3.9 4.9 5.8 11 5.9 18.3h-48c.1 6.2 2.1 11.3 6 15.3 3.8 4 8.6 6 14.2 6 2.7 0 5.4-.5 7.9-1.4 2.6-1 4.8-2.2 6.6-3.8 1.8-1.6 3.8-4.1 5.9-7.6zm0-14.4c-.9-3.7-2.3-6.6-4-8.8-1.8-2.2-4.1-4-7-5.3-2.9-1.3-5.9-2-9.1-2-5.2 0-9.8 1.7-13.5 5.1-2.8 2.5-4.8 6.1-6.2 11.1h39.8z" id="path28" style="fill:#97ba3c;fill-opacity:1"/><path class="st0" d="M527.4 223.6h7v7.8c2.1-3.1 4.3-5.4 6.6-6.9s4.8-2.3 7.3-2.3c1.9 0 3.9.6 6.1 1.8l-3.6 5.8c-1.4-.6-2.7-.9-3.6-.9-2.3 0-4.5.9-6.6 2.8-2.1 1.9-3.8 4.8-4.9 8.8-.9 3-1.3 9.2-1.3 18.5v18.1h-7z" id="path30" style="fill:#97ba3c;fill-opacity:1"/><path class="st0" d="M606.3 223.6h6.9v42.6c0 7.5-.7 13-2 16.5-1.8 4.9-4.9 8.7-9.4 11.4-4.5 2.7-9.8 4-16.1 4-4.6 0-8.7-.6-12.4-1.9-3.7-1.3-6.6-3-8.9-5.2-2.3-2.2-4.4-5.4-6.3-9.6h7.5c2 3.5 4.7 6.2 7.9 7.9 3.2 1.7 7.2 2.6 12 2.6 4.7 0 8.6-.9 11.9-2.6 3.2-1.7 5.5-3.9 6.9-6.6 1.4-2.6 2.1-6.9 2.1-12.8v-2.8c-2.6 3.3-5.8 5.8-9.5 7.5-3.7 1.8-7.7 2.6-11.9 2.6-4.9 0-9.5-1.2-13.9-3.7-4.3-2.4-7.7-5.7-10-9.9-2.4-4.1-3.5-8.7-3.5-13.6s1.2-9.6 3.7-13.8c2.5-4.3 5.9-7.7 10.2-10.1 4.3-2.5 8.9-3.7 13.8-3.7 4 0 7.7.8 11.2 2.5 3.5 1.7 6.8 4.4 10 8.2v-9.5zm-20.3 5.3c-3.9 0-7.5.9-10.9 2.8-3.3 1.9-6 4.5-7.9 7.8-1.9 3.3-2.9 6.9-2.9 10.8 0 5.9 2 10.7 5.9 14.5 3.9 3.8 9 5.7 15.3 5.7 6.3 0 11.4-1.9 15.3-5.7 3.9-3.8 5.8-8.8 5.8-15 0-4-.9-7.6-2.7-10.8-1.8-3.2-4.3-5.7-7.5-7.5-3.1-1.7-6.6-2.6-10.4-2.6z" id="path32" style="fill:#97ba3c;fill-opacity:1"/><path class="st0" d="M622.2 223.6h7.3l18.4 41.2 17.8-41.2h7.3l-31.9 73h-7.3l10.3-23.6z" id="path34" style="fill:#97ba3c;fill-opacity:1"/></g></g><g id="g48" transform="translate(1.68 22.716)" style="fill:#278dc3;fill-opacity:1"><path class="st1" d="M386.7 88.9h11.5V122h18.2v9.9h-18.2V211h-11.5v-79.2h-15.6v-9.9h15.6z" id="path40" style="fill:#278dc3;fill-opacity:1"/><path class="st1" d="m508.6 181.5 9.7 5.1c-3.2 6.2-6.8 11.2-11 15.1-4.2 3.8-8.8 6.7-14 8.7-5.2 2-11.1 3-17.6 3-14.5 0-25.9-4.8-34.1-14.3-8.2-9.5-12.3-20.3-12.3-32.3 0-11.3 3.5-21.4 10.4-30.2 8.8-11.2 20.6-16.9 35.3-16.9 15.2 0 27.3 5.8 36.4 17.3 6.5 8.1 9.7 18.3 9.8 30.5H441c.2 10.4 3.5 18.8 9.9 25.5 6.4 6.6 14.3 9.9 23.7 9.9 4.5 0 8.9-.8 13.2-2.4 4.3-1.6 7.9-3.7 10.9-6.3 3.1-2.7 6.4-6.9 9.9-12.7zm0-24c-1.5-6.1-3.8-11-6.7-14.7-2.9-3.7-6.8-6.6-11.6-8.8-4.8-2.2-9.9-3.4-15.2-3.4-8.8 0-16.3 2.8-22.6 8.4-4.6 4.1-8.1 10.2-10.4 18.4h66.5z" id="path42" style="fill:#278dc3;fill-opacity:1"/><path class="st1" d="M542.5 121.9H554v15.4c4-5.7 8.1-9.8 12.3-12.4 5.8-3.5 11.9-5.2 18.3-5.2 4.3 0 8.4.8 12.3 2.5 3.9 1.7 7.1 3.9 9.5 6.8 2.5 2.8 4.6 6.8 6.4 12.1 3.8-7 8.6-12.3 14.3-15.9 5.7-3.6 11.9-5.4 18.5-5.4 6.2 0 11.6 1.6 16.3 4.7 4.7 3.1 8.2 7.5 10.5 13 2.3 5.6 3.4 13.9 3.4 25.1V211H664v-48.6c0-9.6-.7-16.1-2-19.7-1.4-3.6-3.7-6.5-7-8.6-3.3-2.2-7.2-3.3-11.8-3.3-5.5 0-10.6 1.6-15.2 4.9-4.6 3.3-8 7.6-10.1 13.1-2.1 5.5-3.2 14.6-3.2 27.4V211h-11.5v-45.6c0-10.8-.7-18.1-2-21.9-1.3-3.8-3.7-6.9-7-9.3-3.3-2.3-7.3-3.5-11.9-3.5-5.3 0-10.3 1.6-14.9 4.8-4.6 3.2-8 7.5-10.2 12.9-2.2 5.4-3.3 13.7-3.3 24.8V211h-11.5v-89.1z" id="path44" style="fill:#278dc3;fill-opacity:1"/><path class="st1" d="M690.3 121.9h12.1l30.6 68.6 29.7-68.6H775l-53.2 121.7h-12.1l17.2-39.3z" id="path46" style="fill:#278dc3;fill-opacity:1"/></g><path class="st1" d="m356.78 154.716-7.3 7.6c-6.1-5.9-12.1-8.9-17.9-8.9-3.7 0-6.9 1.2-9.5 3.7-2.6 2.4-4 5.3-4 8.6 0 2.9 1.1 5.6 3.3 8.2 2.2 2.7 6.8 5.8 13.7 9.4 8.5 4.4 14.3 8.6 17.3 12.7s4.5 8.8 4.5 14c0 7.3-2.6 13.5-7.7 18.5-5.1 5.1-11.5 7.6-19.2 7.6-5.1 0-10-1.1-14.7-3.3-4.7-2.2-8.5-5.3-11.6-9.2l7.2-8.2c5.8 6.6 12 9.9 18.6 9.9 4.6 0 8.5-1.5 11.7-4.4 3.2-2.9 4.8-6.4 4.8-10.4 0-3.3-1.1-6.2-3.2-8.7-2.1-2.5-6.9-5.7-14.4-9.5-8-4.1-13.5-8.2-16.4-12.2-2.9-4-4.3-8.6-4.3-13.8 0-6.7 2.3-12.3 6.9-16.8 4.6-4.5 10.4-6.7 17.4-6.7 8.3-.1 16.5 3.9 24.8 11.9z" id="path50" style="fill:#278dc3;fill-opacity:1"/></g><g id="g3812" transform="translate(0 -34.327)"><g id="g16" transform="rotate(1.137 -2631.751 230.771)" style="fill:#278dc3;fill-opacity:1"><g id="g14" style="fill:#278dc3;fill-opacity:1"><path class="st1" d="M123 58.6 154 87l-29.8 31.8z" id="path4001" style="fill:#278dc3;fill-opacity:1;stroke:none;stroke-opacity:1"/></g></g><g id="g3800"><g id="g22" transform="translate(1.68 54.716)"><g id="g20"><path class="st1" d="m145.8 238.4 7-15.6c21.4 7.3 35.6 6.7 46-2.9 4.5-4.1 7.7-9 9.7-14.6 2-5.7 2.4-11.2 1.3-16.6-1.2-5.4-3.5-10-7.1-13.9-4.1-4.5-9.6-7.4-16.5-9-9.6-2.1-23.7-2.2-42.3-.4-18.8 1.8-31.2 2.1-37.4.8-10.4-2-19-6.6-25.7-13.9-5.3-5.8-8.8-12.3-10.4-19.6-1.6-7.3-1.1-14.6 1.4-22S78.5 97 84.4 91.5c6.3-5.8 13.5-9.6 21.8-11.5 8.3-1.9 19.3-1.5 33 1.2L136 99.5c-11.1-2-19.3-2.5-24.8-1.4s-10.3 3.6-14.4 7.4c-5.4 4.9-8.3 10.6-8.7 16.9-.4 6.4 1.6 11.9 5.9 16.7 2.6 2.9 5.8 5.1 9.5 6.7 3.7 1.6 8.6 2.5 14.7 2.8 3.3.1 13.1-.7 29.4-2.5 19.3-2.1 34.1-1.7 44.5 1 10.4 2.7 18.6 7.4 24.7 14.1 8.8 9.6 12.9 21.4 12.1 35.2-.8 13.8-6.4 25.5-16.9 35.2-8.1 7.4-17.467 10.993-28.067 12.293-13.4 1.7-23.933.007-38.133-5.493z" id="path18" style="fill:#278dc3;fill-opacity:1"/></g></g><path id="path2125" style="color:#000;fill:#97ba3c;fill-opacity:1;-inkscape-stroke:none" d="M183.257 128.948a93.59 93.59 0 0 0-8.678.268c-8.073.598-15.753 2.203-22.877 4.896l8.604 8.201-12.79 13.118c8.932-5.122 18.702-8.38 28.563-9.114 18.7-1.4 35.2 3.999 49.5 16.399 14.3 12.4 22.1 27.901 23.5 46.601 1.4 18.9-3.998 35.4-16.298 49.7-12.3 14.3-27.802 22.1-46.602 23.5-18.1 1.3-35.185-3.924-49.799-16.301l-11.1 13c18.668 15.42 39.819 22.282 62.319 20.582 23.4-1.8 42.705-11.772 58.105-29.572 15.4-17.9 22.076-38.71 20.276-62.21-1.8-23.5-11.6-42.9-29.4-58.3-15.663-13.475-33.392-20.442-53.323-20.768z"/><path id="path18-1-5-7-3" style="color:#000;fill:url(#linearGradient1688);-inkscape-stroke:none" d="m46.625 156.031-14.1 13.6c3.6 3.9 5.9 8.5 7.1 13.9 1.1 5.4.701 10.9-1.299 16.6-2 5.6-5.2 10.501-9.7 14.601-10.4 9.6-23.863 10.44-45.263 3.14-9.12-3.658-17.272-9.397-24.437-17.24-10.076-10.977-15.917-23.97-17.592-38.974-6.137-.536-12.064-2.128-17.39-4.67.952 21.534 7.95 40.239 21.84 55.41 8.739 9 20.109 16.517 29.841 20.834 14.2 5.5 24.733 7.192 38.133 5.492 10.6-1.3 19.968-4.893 28.068-12.293 10.5-9.7 16.1-21.399 16.9-35.199.8-13.8-12.1-35.2-12.1-35.2z" clip-path="url(#clipPath1035)" transform="translate(171.854 59.884)"/></g></g></svg>